<svg width="18" height="18" viewBox="0 0 18 18" fill="none" xmlns="http://www.w3.org/2000/svg">
<path fill-rule="evenodd" clip-rule="evenodd" d="M11.9649 11.2549H12.7549L17.7449 16.2549L16.2549 17.7449L11.2549 12.7549V11.9649L10.9849 11.6849C9.84488 12.6649 8.36488 13.2549 6.75488 13.2549C3.16488 13.2549 0.254883 10.3449 0.254883 6.75488C0.254883 3.16488 3.16488 0.254883 6.75488 0.254883C10.3449 0.254883 13.2549 3.16488 13.2549 6.75488C13.2549 8.36488 12.6649 9.84488 11.6849 10.9849L11.9649 11.2549ZM2.25488 6.75488C2.25488 9.24488 4.26488 11.2549 6.75488 11.2549C9.24488 11.2549 11.2549 9.24488 11.2549 6.75488C11.2549 4.26488 9.24488 2.25488 6.75488 2.25488C4.26488 2.25488 2.25488 4.26488 2.25488 6.75488Z" fill="#CD9DFF"/>
</svg>
