<svg viewBox="0 0 42 48" fill="none" xmlns="http://www.w3.org/2000/svg">
<path fill-rule="evenodd" clip-rule="evenodd" d="M21.5429 0.397652L41.2621 11.8229C41.5301 11.9782 41.6951 12.2651 41.6951 12.5756V35.4259C41.6951 35.7364 41.5301 36.0233 41.2621 36.1786L21.5429 47.6039C21.275 47.7591 20.945 47.7591 20.6771 47.6039L0.957866 36.1786C0.68995 36.0233 0.524902 35.7364 0.524902 35.4259V12.5756C0.524902 12.2651 0.68995 11.9782 0.957866 11.8229L20.6771 0.397652C20.945 0.242449 21.275 0.242449 21.5429 0.397652Z" fill="#AE52FF"/>
<path fill-rule="evenodd" clip-rule="evenodd" d="M21.5056 45.4253L39.3771 35.0707C39.645 34.9154 39.8101 34.6285 39.8101 34.318V13.6089C39.8101 13.2984 39.645 13.0115 39.3771 12.8562L21.5056 2.50156C21.2378 2.34636 20.9078 2.34636 20.6399 2.50156L2.76841 12.8562C2.5005 13.0115 2.33545 13.2984 2.33545 13.6089V34.318C2.33545 34.6285 2.5005 34.9154 2.76841 35.0707L20.6399 45.4253C20.9078 45.5805 21.2378 45.5805 21.5056 45.4253Z" fill="url(#paint0_linear_20121_1499)"/>
<path d="M32.976 12.4681H9.16895V13.8205H32.976V12.4681Z" fill="#9013FE"/>
<path d="M32.976 16.7502H9.16895V18.1026H32.976V16.7502Z" fill="#9013FE"/>
<path d="M32.976 21.0333H9.16895V22.3857H32.976V21.0333Z" fill="#9013FE"/>
<path d="M32.976 25.3153H9.16895V26.6677H32.976V25.3153Z" fill="#9013FE"/>
<path d="M32.976 29.5983H9.16895V30.9506H32.976V29.5983Z" fill="#9013FE"/>
<path fill-rule="evenodd" clip-rule="evenodd" d="M21.1232 45.7697L2.34391 35.1437C2.24778 35.0894 2.21378 34.967 2.26798 34.8706C2.28583 34.8388 2.312 34.8125 2.34365 34.7945L21.2222 24.0754L39.814 34.7766C39.9097 34.8317 39.9428 34.9543 39.8879 35.0503C39.8703 35.0812 39.8448 35.1068 39.814 35.1245L21.3207 45.769C21.2596 45.8041 21.1846 45.8044 21.1232 45.7697Z" fill="#4D00B4"/>
<path d="M11.1451 33.6755L26.3426 42.9917C26.519 43.0998 26.7494 43.044 26.8572 42.8669C26.965 42.6899 26.9093 42.4587 26.7329 42.3505L11.5353 33.0344C11.3589 32.9262 11.1285 32.9821 11.0208 33.1591C10.913 33.3362 10.9686 33.5674 11.1451 33.6755Z" fill="#9013FE"/>
<path d="M20.2784 28.4164L35.476 37.7326C35.6524 37.8408 35.8828 37.7849 35.9905 37.6079C36.0983 37.4308 36.0427 37.1996 35.8662 37.0915L20.6686 27.7752C20.4922 27.6671 20.2618 27.7229 20.1541 27.9C20.0463 28.077 20.1019 28.3082 20.2784 28.4164Z" fill="#9013FE"/>
<path fill-rule="evenodd" clip-rule="evenodd" d="M21.2059 32.6762L28.1265 28.6676C28.209 28.6199 28.2598 28.5316 28.2598 28.436V13.1792C28.2598 13.0837 28.209 12.9954 28.1265 12.9476L21.2059 8.93902C21.1235 8.89129 21.022 8.89129 20.9396 8.93902L14.019 12.9476C13.9365 12.9954 13.8857 13.0837 13.8857 13.1792V28.436C13.8857 28.5316 13.9365 28.6199 14.019 28.6676L20.9396 32.6762C21.022 32.724 21.1235 32.724 21.2059 32.6762Z" fill="white"/>
<path d="M19.8946 18.374L17.5832 16.0492C17.4443 15.9096 17.4443 15.6831 17.5832 15.5434L18.086 15.0376C18.2249 14.8979 18.4501 14.8979 18.589 15.0376L20.1461 16.6037L23.4812 13.2493C23.6201 13.1096 23.8453 13.1096 23.9841 13.2493L24.487 13.7551C24.6259 13.8948 24.6259 14.1212 24.487 14.2609L20.3975 18.374C20.2586 18.5137 20.0335 18.5137 19.8946 18.374Z" fill="#4D00B4"/>
<path fill-rule="evenodd" clip-rule="evenodd" d="M12.2596 37.2596L17.5366 34.2021C17.619 34.1544 17.6698 34.0661 17.6698 33.9705V27.8557C17.6698 27.7601 17.619 27.6718 17.5366 27.6241L12.2596 24.5666C12.1772 24.5189 12.0756 24.5189 11.9932 24.5666L6.71623 27.6241C6.63379 27.6718 6.58301 27.7601 6.58301 27.8557V33.9705C6.58301 34.0661 6.63379 34.1544 6.71623 34.2021L11.9932 37.2596C12.0756 37.3073 12.1772 37.3073 12.2596 37.2596Z" fill="#EBD4FF"/>
<path d="M12.1263 33.5046C13.5528 33.5046 14.7091 32.3441 14.7091 30.9126C14.7091 29.481 13.5528 28.3206 12.1263 28.3206C10.6998 28.3206 9.54346 29.481 9.54346 30.9126C9.54346 32.3441 10.6998 33.5046 12.1263 33.5046ZM12.1263 32.603C11.196 32.603 10.4418 31.8462 10.4418 30.9126C10.4418 29.979 11.196 29.2221 12.1263 29.2221C13.0566 29.2221 13.8108 29.979 13.8108 30.9126C13.8108 31.8462 13.0566 32.603 12.1263 32.603Z" fill="#9013FE"/>
<path d="M26.9868 32.453C27.2349 32.453 27.436 32.2512 27.436 32.0023C27.436 31.7533 27.2349 31.5515 26.9868 31.5515C26.7387 31.5515 26.5376 31.7533 26.5376 32.0023C26.5376 32.2512 26.7387 32.453 26.9868 32.453Z" fill="white"/>
<path d="M28.1098 33.1295C28.3579 33.1295 28.559 32.9276 28.559 32.6787C28.559 32.4297 28.3579 32.2279 28.1098 32.2279C27.8618 32.2279 27.6606 32.4297 27.6606 32.6787C27.6606 32.9276 27.8618 33.1295 28.1098 33.1295Z" fill="white"/>
<path d="M29.2329 33.8049C29.481 33.8049 29.6821 33.6031 29.6821 33.3541C29.6821 33.1051 29.481 32.9033 29.2329 32.9033C28.9848 32.9033 28.7837 33.1051 28.7837 33.3541C28.7837 33.6031 28.9848 33.8049 29.2329 33.8049Z" fill="white"/>
<path d="M33.5752 36.5103C33.8232 36.5103 34.0244 36.3085 34.0244 36.0595C34.0244 35.8106 33.8232 35.6088 33.5752 35.6088C33.3271 35.6088 33.126 35.8106 33.126 36.0595C33.126 36.3085 33.3271 36.5103 33.5752 36.5103Z" fill="white"/>
<path d="M16.6557 36.9609C16.9038 36.9609 17.1049 36.7591 17.1049 36.5101C17.1049 36.2611 16.9038 36.0593 16.6557 36.0593C16.4077 36.0593 16.2065 36.2611 16.2065 36.5101C16.2065 36.7591 16.4077 36.9609 16.6557 36.9609Z" fill="white"/>
<path d="M20.4736 39.3647C20.7217 39.3647 20.9228 39.1629 20.9228 38.9139C20.9228 38.665 20.7217 38.4631 20.4736 38.4631C20.2255 38.4631 20.0244 38.665 20.0244 38.9139C20.0244 39.1629 20.2255 39.3647 20.4736 39.3647Z" fill="white"/>
<path d="M21.5967 40.0411C21.8447 40.0411 22.0458 39.8393 22.0458 39.5903C22.0458 39.3413 21.8447 39.1395 21.5967 39.1395C21.3486 39.1395 21.1475 39.3413 21.1475 39.5903C21.1475 39.8393 21.3486 40.0411 21.5967 40.0411Z" fill="white"/>
<defs>
<linearGradient id="paint0_linear_20121_1499" x1="21.0728" y1="45.5417" x2="21.0728" y2="2.38516" gradientUnits="userSpaceOnUse">
<stop stop-color="#9013FE"/>
<stop offset="1" stop-color="#4D00B4"/>
</linearGradient>
</defs>
</svg>
